<?xml version="1.0" standalone="no"?>
<!DOCTYPE svg PUBLIC "-//W3C//DTD SVG 20010904//EN"
 "http://www.w3.org/TR/2001/REC-SVG-20010904/DTD/svg10.dtd">
<svg version="1.0" xmlns="http://www.w3.org/2000/svg"
 width="460.000000pt" height="460.000000pt" viewBox="0 0 460.000000 460.000000"
 preserveAspectRatio="xMidYMid meet">

<g transform="translate(0.000000,460.000000) scale(0.100000,-0.100000)"
fill="#000000" stroke="none">
<path d="M0 3782 c0 -777 1 -818 18 -833 16 -14 17 -24 9 -98 -8 -61 -7 -85 2
-90 11 -7 10 -179 -2 -199 -19 -30 -22 -184 -24 -1292 l-3 -1225 107 2 c60 1
126 5 148 8 22 4 85 8 140 10 244 9 248 10 258 36 5 13 14 33 19 44 5 12 10
27 11 36 2 8 13 31 25 50 23 38 29 83 12 94 -5 3 -10 15 -10 27 0 11 -20 40
-45 65 -25 24 -45 50 -45 58 0 8 -1 18 -2 23 -2 4 10 7 26 7 16 1 34 9 42 20
13 17 14 15 14 -26 0 -39 4 -48 30 -67 28 -21 41 -52 21 -52 -5 0 -8 -23 -7
-52 2 -29 -3 -63 -10 -78 -34 -68 -80 -200 -75 -215 2 -5 4 -16 4 -22 0 -14
27 -18 27 -5 0 9 80 32 113 32 13 0 27 -4 33 -9 13 -12 289 -35 311 -26 10 5
21 9 25 9 3 1 10 4 14 9 4 4 16 7 26 7 10 0 18 7 18 15 0 19 32 35 61 30 13
-2 48 -1 78 3 42 5 55 11 57 26 1 10 -4 25 -11 33 -8 7 -12 19 -9 26 2 7 -2
21 -10 32 -12 17 -12 21 3 33 12 10 13 15 4 18 -7 3 -13 11 -13 18 0 7 -12 26
-26 41 -14 15 -23 33 -20 41 3 7 -1 20 -9 27 -10 10 -11 17 -3 25 8 8 7 16 -3
28 -7 9 -14 22 -14 28 -1 29 -19 83 -35 106 -9 14 -15 30 -13 37 2 7 0 21 -6
31 -8 15 -7 23 4 32 8 7 14 15 13 18 -3 28 4 52 17 52 18 0 20 16 3 23 -7 3 4
3 25 0 30 -5 37 -2 37 11 0 10 9 16 24 16 14 0 28 5 31 10 3 6 25 19 48 30 29
14 43 17 48 9 5 -8 9 -5 12 7 3 12 5 7 6 -12 1 -19 7 -34 17 -38 9 -3 14 -12
11 -20 -3 -7 3 -20 14 -29 15 -13 18 -27 15 -69 -6 -93 -29 -228 -39 -228 -5
0 -7 -9 -4 -20 3 -11 -6 -92 -20 -181 -27 -173 -26 -178 24 -179 12 0 24 -4
28 -9 3 -6 27 -13 53 -17 26 -3 52 -10 57 -15 7 -5 22 2 38 15 34 29 75 22 94
-15 7 -13 13 -18 13 -11 0 7 4 10 10 7 5 -3 20 6 32 20 33 38 91 45 123 15 14
-13 25 -29 25 -37 0 -7 5 -13 10 -13 6 0 10 7 10 15 0 21 28 33 85 36 41 3 50
0 53 -14 4 -21 21 -22 36 -3 6 7 37 16 68 20 53 6 57 5 60 -16 2 -19 9 -23 33
-21 17 1 62 3 100 3 39 1 88 5 110 10 54 13 174 20 330 18 179 -1 205 -2 205
-9 0 -3 34 -9 76 -13 43 -3 82 -11 89 -16 13 -11 713 -14 765 -4 21 5 27 11
23 23 -4 10 1 8 14 -6 18 -20 30 -23 98 -23 l78 0 -7 42 c-4 23 -14 47 -24 54
-15 12 -15 15 -2 24 13 8 13 10 -2 10 -10 0 -18 5 -18 10 0 6 5 10 12 10 6 0
3 9 -8 21 -12 13 -14 23 -8 27 6 4 13 26 16 49 6 42 50 95 91 109 10 3 16 11
14 18 -3 7 5 24 17 37 12 14 21 30 19 36 -2 6 6 18 19 27 14 10 19 19 13 25
-6 6 -8 33 -6 62 2 28 6 47 10 41 4 -7 19 -8 41 -2 32 7 33 9 13 15 -13 4 -23
10 -23 14 1 12 50 66 50 54 0 -7 6 -10 14 -7 8 3 12 12 9 20 -5 14 18 27 72
39 27 7 28 8 10 15 -17 7 -17 9 -2 9 16 1 17 99 17 1921 l0 1920 -2300 0
-2300 0 0 -818z m2492 179 c7 10 8 8 3 -8 -3 -12 -1 -24 5 -28 5 -3 10 -1 10
4 0 6 5 11 10 11 6 0 10 -6 9 -12 -3 -26 13 -56 32 -61 12 -3 17 -11 13 -20
-5 -15 21 -31 36 -22 4 3 10 -1 13 -9 4 -9 14 -12 26 -9 12 3 21 1 21 -6 0 -6
15 -20 33 -31 53 -31 80 -76 84 -139 3 -58 14 -88 46 -131 10 -14 25 -40 32
-57 15 -36 35 -44 36 -15 0 14 2 14 9 -3 12 -29 12 -113 0 -120 -8 -5 -8 -11
0 -19 13 -16 -6 -76 -23 -73 -7 1 -13 -13 -15 -30 -4 -36 -1 -38 29 -22 19 10
20 8 17 -23 l-3 -33 -60 4 c-33 2 -61 7 -63 12 -2 4 -10 5 -19 2 -10 -4 -14
-2 -10 4 4 5 -15 15 -45 22 -45 10 -59 9 -120 -10 -72 -23 -94 -43 -123 -112
-19 -46 -10 -73 28 -84 18 -5 31 -14 30 -20 -1 -5 11 -10 27 -9 24 1 29 5 24
19 -3 9 -1 17 4 17 12 0 24 -29 17 -40 -3 -5 4 -14 15 -20 11 -6 20 -7 20 -3
0 4 5 2 12 -5 14 -14 42 -16 33 -2 -3 6 -1 10 4 10 6 0 11 -7 11 -15 0 -8 5
-15 10 -15 6 0 10 -5 10 -11 0 -5 -4 -8 -9 -5 -11 7 26 -66 37 -73 5 -3 16
-19 24 -36 22 -44 5 -235 -21 -235 -9 0 -57 -73 -96 -145 -61 -112 -88 -143
-153 -176 -76 -38 -103 -64 -97 -93 4 -15 -14 -43 -63 -101 -85 -101 -115
-117 -202 -109 -36 4 -75 7 -87 8 -13 0 -23 4 -23 8 0 3 -9 4 -20 1 -11 -3
-20 -1 -20 5 0 11 -38 28 -52 24 -5 -1 -8 3 -8 9 0 5 -5 7 -12 3 -6 -4 -17 1
-25 11 -9 13 -13 14 -13 5 0 -11 -3 -11 -12 1 -7 9 -32 30 -55 48 -24 18 -42
35 -41 39 1 4 -5 21 -14 37 -23 44 -36 148 -30 243 4 68 1 90 -14 120 -11 20
-23 40 -27 43 -4 3 -6 18 -3 32 3 15 -1 39 -9 54 -13 25 -12 28 18 54 18 16
33 36 33 46 1 10 5 27 10 37 6 16 4 18 -10 13 -13 -5 -24 1 -38 18 -11 14 -28
25 -38 25 -11 0 -20 10 -24 24 -7 27 10 164 25 203 5 13 9 44 9 67 0 55 26 82
67 71 15 -5 31 -9 36 -10 4 -2 13 -3 21 -4 8 0 21 -8 30 -16 8 -9 45 -29 81
-46 36 -17 65 -34 65 -39 0 -8 48 -5 57 3 2 3 -12 10 -31 17 -20 6 -36 16 -36
22 0 6 9 7 23 3 27 -9 98 -17 77 -9 -55 20 -90 38 -90 46 0 5 6 6 13 1 15 -9
22 -11 66 -19 24 -5 32 -3 27 5 -4 6 -3 11 2 11 5 0 21 11 34 25 l26 25 5 -22
c4 -13 1 -26 -6 -30 -7 -4 -7 -8 -2 -9 6 0 1 -4 -10 -8 -16 -7 -9 -10 30 -16
71 -9 77 -13 25 -15 -40 -1 -42 -2 -20 -11 13 -6 32 -17 42 -26 16 -14 21 -13
63 12 62 36 83 72 81 141 -1 30 -7 58 -13 62 -6 4 -15 20 -18 35 -8 30 -52 67
-72 60 -7 -3 -13 0 -13 5 0 13 -101 62 -128 62 -11 0 -24 5 -28 11 -4 7 -21 9
-43 5 -25 -4 -31 -2 -21 4 18 12 9 12 -47 1 -24 -5 -40 -4 -37 0 3 5 -5 9 -18
9 -13 0 -32 7 -42 15 -12 9 -14 15 -7 15 7 0 11 6 9 12 -3 7 1 19 8 26 7 7 11
19 8 27 -4 8 -1 15 4 15 6 0 16 25 22 55 6 30 16 55 21 55 6 0 6 7 0 19 -8 14
-7 20 4 25 8 3 15 12 15 21 0 8 5 15 10 15 16 0 30 44 17 52 -16 10 11 38 37
37 11 0 15 -3 9 -6 -7 -2 -13 -9 -13 -15 0 -5 20 2 44 16 24 14 45 23 48 21 2
-2 19 9 36 25 18 16 32 24 32 18 0 -7 5 -6 15 2 8 7 13 16 10 20 -7 12 49 20
170 26 60 3 112 7 116 10 3 2 5 16 3 31 -2 16 -1 22 2 14 5 -11 8 -11 16 0z
m-418 -106 c-39 -35 -54 -41 -67 -28 -8 7 23 31 63 50 44 20 45 14 4 -22z
m-604 -125 c-6 -11 -13 -20 -16 -20 -2 0 0 9 6 20 6 11 13 20 16 20 2 0 0 -9
-6 -20z m1610 -344 c14 -18 14 -18 -7 -6 -12 8 -19 18 -16 23 3 4 6 7 7 5 1
-2 8 -12 16 -22z m-10 -20 c0 -3 -4 -8 -10 -11 -5 -3 -10 -1 -10 4 0 6 5 11
10 11 6 0 10 -2 10 -4z m-1066 -104 c-22 -5 -31 7 -14 18 9 6 17 5 22 -3 4 -7
1 -13 -8 -15z m799 -238 c31 -6 37 -11 37 -31 0 -34 -21 -38 -74 -13 -78 35
-57 59 37 44z m768 -431 c-12 -20 -14 -14 -5 12 4 9 9 14 11 11 3 -2 0 -13 -6
-23z m-36 -41 c11 3 22 -86 25 -217 1 -49 5 -100 8 -113 4 -13 6 55 5 151 -1
145 1 174 13 174 8 0 14 -6 14 -13 0 -8 6 -11 14 -8 12 5 21 -2 54 -40 6 -8
12 -26 12 -38 0 -13 11 -39 24 -58 13 -19 27 -55 31 -80 4 -25 12 -56 18 -70
6 -14 11 -29 12 -35 1 -5 8 -26 17 -45 32 -75 48 -138 51 -207 2 -40 0 -70 -5
-67 -4 3 -7 21 -5 40 3 19 0 34 -4 34 -5 0 -9 -10 -9 -22 0 -20 -1 -20 -17 -6
-64 56 -99 97 -100 119 -3 41 -13 69 -24 69 -6 0 -9 -6 -6 -12 22 -61 21 -62
-32 -18 -40 34 -51 50 -52 74 -1 27 -2 28 -7 8 -7 -22 -9 -21 -64 25 -32 27
-52 49 -45 51 8 2 11 28 10 90 -2 65 3 102 17 145 11 31 20 69 21 85 1 25 1
26 7 4 4 -13 12 -22 17 -20z m-738 -54 c-3 -8 -6 -5 -6 6 -1 11 2 17 5 13 3
-3 4 -12 1 -19z m-2205 -538 c-3 -14 33 -75 65 -110 19 -20 20 -26 8 -28 -8
-2 -13 -8 -10 -13 4 -5 1 -9 -5 -9 -7 0 -10 6 -7 13 5 14 -20 67 -32 67 -5 0
-11 8 -14 18 -3 9 -10 32 -16 50 -7 25 -7 32 2 29 7 -3 11 -10 9 -17z m-52
-96 c8 -13 18 -24 23 -24 5 0 4 -6 -2 -14 -9 -11 -7 -15 9 -19 15 -4 20 -13
20 -37 0 -17 4 -29 10 -25 5 3 12 -6 16 -21 4 -15 13 -39 20 -53 8 -14 14 -33
14 -41 0 -9 4 -20 8 -25 15 -17 32 -92 26 -109 -7 -18 -24 -22 -24 -5 0 5 -4
7 -10 4 -6 -3 -7 1 -4 9 3 9 1 16 -5 16 -6 0 -11 7 -11 15 0 8 -4 15 -10 15
-13 0 -13 -8 5 -66 19 -62 19 -62 -3 -33 -23 31 -39 68 -68 158 -13 41 -29 78
-36 82 -7 5 -13 40 -15 94 -1 47 -5 89 -7 93 -3 5 3 8 13 9 10 1 24 -9 31 -23z
m155 -112 c-11 -11 -25 15 -19 33 7 17 8 16 16 -5 5 -13 6 -25 3 -28z m14 -32
c-6 -5 -9 -15 -6 -24 4 -9 2 -16 -3 -16 -6 0 -10 13 -10 30 0 23 4 28 16 23
12 -4 13 -8 3 -13z m-199 -124 c0 -8 14 -46 30 -85 17 -40 28 -75 26 -80 -3
-5 -17 -6 -31 -3 -14 2 -25 0 -25 -6 0 -5 14 -12 32 -16 44 -9 62 -25 46 -43
-9 -11 -7 -15 10 -20 12 -3 22 -12 22 -19 0 -8 7 -17 15 -20 8 -4 12 -10 9
-15 -3 -5 0 -9 5 -9 6 0 11 -6 11 -12 -1 -7 -9 -3 -19 10 -12 13 -30 22 -47
22 -29 0 -110 46 -119 67 -3 8 4 13 19 13 14 0 26 -5 28 -12 3 -7 11 -9 24 -3
17 7 17 8 2 12 -10 3 -18 9 -18 15 0 6 -10 8 -24 4 -30 -7 -40 3 -21 24 12 13
13 23 4 49 -9 24 -8 35 2 47 10 13 10 17 0 24 -9 5 -11 18 -6 39 7 31 25 44
25 17z m204 -196 c6 -21 5 -22 -4 -7 -18 28 -30 79 -22 91 3 6 9 -5 13 -24 3
-19 9 -46 13 -60z m-204 -147 c0 -6 9 -18 20 -28 19 -17 75 -115 65 -115 -2 0
-34 30 -70 67 -57 60 -65 73 -65 106 l0 39 25 -30 c14 -17 25 -34 25 -39z
m180 7 c0 -5 -5 -10 -11 -10 -5 0 -7 5 -4 10 3 6 8 10 11 10 2 0 4 -4 4 -10z
m3390 -40 c0 -14 -5 -18 -17 -14 -17 5 -17 5 0 -6 9 -6 17 -15 17 -20 0 -11
-30 -1 -47 16 -10 9 -7 13 12 18 14 4 25 11 25 16 0 6 2 10 5 10 3 0 5 -9 5
-20z m-22 -61 c-5 -3 -3 -9 6 -12 10 -4 16 -1 16 8 0 8 8 15 19 15 10 0 24 7
31 15 16 19 30 19 30 0 0 -23 30 -65 46 -65 8 0 19 -12 24 -26 6 -16 17 -24
27 -23 30 4 87 -12 73 -21 -7 -4 -21 -5 -31 -3 -10 3 -19 0 -19 -6 0 -6 9 -11
20 -11 25 0 26 -16 3 -29 -17 -10 -17 -10 0 -11 25 0 32 4 29 17 -5 22 56 26
82 6 21 -17 22 -21 10 -38 -8 -10 -26 -20 -42 -22 -15 -2 -40 -9 -55 -15 -21
-8 -31 -8 -40 1 -13 13 -47 15 -47 2 0 -5 10 -12 23 -14 12 -2 7 -4 -13 -4
-48 0 -79 -11 -109 -39 -30 -28 -58 -16 -40 17 9 18 6 19 -46 19 -40 0 -55 4
-55 14 0 8 7 16 15 20 8 3 15 15 15 26 0 11 -7 20 -15 20 -9 0 -15 9 -15 21 0
11 -9 34 -21 50 l-20 29 20 26 c11 15 18 31 15 36 -3 5 7 6 23 3 l28 -5 -28
11 c-15 6 -25 14 -22 19 2 4 20 0 38 -9 19 -9 30 -19 25 -22z m197 11 c3 -5 1
-10 -4 -10 -6 0 -11 5 -11 10 0 6 2 10 4 10 3 0 8 -4 11 -10z m43 -44 c-1 -2
-15 -6 -30 -10 -21 -5 -28 -3 -28 8 0 19 21 26 43 14 10 -5 17 -11 15 -12z
m-3842 -81 c4 -8 10 -13 14 -10 4 3 10 -2 14 -10 3 -8 14 -15 24 -15 23 0 42
-19 42 -42 0 -20 -11 -23 -25 -9 -6 5 -19 11 -30 13 -26 4 -53 32 -61 63 -7
27 12 36 22 10z m24 -145 c0 -5 -9 -10 -20 -10 -11 0 -20 5 -20 10 0 6 9 10
20 10 11 0 20 -4 20 -10z m160 -30 c0 -5 -7 -7 -15 -4 -8 4 -15 8 -15 10 0 2
7 4 15 4 8 0 15 -4 15 -10z m25 -30 c8 -13 -5 -13 -25 0 -13 8 -13 10 2 10 9
0 20 -4 23 -10z m-159 -8 c-3 -5 4 -18 14 -30 21 -22 26 -42 11 -42 -5 0 -11
-8 -14 -17 -3 -16 -5 -16 -11 2 -4 11 -13 32 -21 48 -8 15 -10 27 -4 27 6 0 7
5 4 10 -3 6 1 10 10 10 9 0 14 -4 11 -8z m2920 -117 c-11 -8 -25 -15 -30 -15
-6 1 0 7 14 15 32 19 40 18 16 0z m-1299 -34 c146 -50 190 -141 143 -296 -12
-38 -21 -88 -20 -111 1 -43 -12 -60 -65 -86 -16 -8 -29 -20 -27 -27 1 -7 -1
-10 -6 -7 -5 3 -33 1 -63 -3 -66 -11 -138 1 -216 35 -115 51 -146 103 -147
249 -1 78 3 106 15 126 10 15 15 36 12 52 -8 38 13 60 51 53 19 -4 50 1 81 14
65 25 172 26 242 1z m1303 -1 c0 -5 7 -7 15 -4 8 4 15 4 15 1 0 -13 -30 -14
-40 -1 -9 10 -9 14 -1 14 6 0 11 -4 11 -10z m123 -7 c-7 -2 -19 -2 -25 0 -7 3
-2 5 12 5 14 0 19 -2 13 -5z m54 -47 c4 -3 -5 -6 -18 -7 -48 -2 -84 3 -94 13
-7 8 -5 9 7 5 10 -3 20 -2 23 2 5 9 71 -2 82 -13z m31 -53 c-10 -2 -26 -2 -35
0 -10 3 -2 5 17 5 19 0 27 -2 18 -5z m-3026 -18 c0 -5 -5 -11 -11 -13 -6 -2
-11 4 -11 13 0 9 5 15 11 13 6 -2 11 -8 11 -13z m-215 -27 c-3 -7 -5 -2 -5 12
0 14 2 19 5 13 2 -7 2 -19 0 -25z m3328 22 c3 -5 1 -10 -4 -10 -6 0 -11 5 -11
10 0 6 2 10 4 10 3 0 8 -4 11 -10z m-3088 -26 c-3 -3 -12 -4 -19 -1 -8 3 -5 6
6 6 11 1 17 -2 13 -5z m-210 -20 c-3 -3 -12 -4 -19 -1 -8 3 -5 6 6 6 11 1 17
-2 13 -5z m3386 -47 c-3 -17 0 -24 11 -24 11 0 13 4 6 12 -13 15 12 27 36 18
13 -5 13 -7 2 -15 -8 -5 -3 -6 15 -2 21 5 27 3 25 -7 -2 -8 3 -13 11 -11 11 2
12 0 4 -10 -13 -15 -5 -68 10 -68 6 0 8 -3 4 -6 -3 -3 -19 2 -36 12 -28 17
-31 17 -49 1 -27 -24 -45 -22 -37 6 5 17 4 18 -4 7 -8 -12 -12 -9 -20 13 -7
17 -18 27 -31 27 -12 0 -18 5 -15 10 3 6 -4 10 -17 11 -23 1 -23 1 2 9 39 13
50 11 44 -5 -4 -8 -2 -15 4 -15 6 0 13 14 17 30 8 35 24 41 18 7z m-115 -44
c-10 -2 -28 -2 -40 0 -13 2 -5 4 17 4 22 1 32 -1 23 -4z m-331 -100 c-3 -10
-5 -2 -5 17 0 19 2 27 5 18 2 -10 2 -26 0 -35z m-2647 -3 c0 -5 -5 -10 -11
-10 -5 0 -7 5 -4 10 3 6 8 10 11 10 2 0 4 -4 4 -10z m-40 -43 c0 -5 -4 -5 -10
-2 -5 3 -10 14 -10 23 0 15 2 15 10 2 5 -8 10 -19 10 -23z m3197 -3 c-3 -3
-12 -4 -19 -1 -8 3 -5 6 6 6 11 1 17 -2 13 -5z m55 -43 l21 -20 -29 4 c-16 2
-33 4 -38 4 -8 1 12 31 21 31 2 0 13 -9 25 -19z m-122 -9 c0 -5 -6 -9 -12 -10
-7 0 -24 -3 -38 -7 -21 -5 -20 -4 5 9 36 17 45 19 45 8z m-10 -42 c-32 -25
-49 -26 -24 -1 10 11 26 20 34 20 10 0 6 -6 -10 -19z m190 -9 c0 -5 7 -17 16
-25 28 -28 -34 -20 -68 9 l-30 25 41 0 c23 0 41 -4 41 -9z m46 -18 c-6 -6 -36
9 -36 18 0 5 9 4 20 -3 10 -7 18 -14 16 -15z m-170 5 c4 -6 3 -8 -4 -4 -6 3
-13 2 -17 -4 -3 -5 -16 -10 -28 -10 -20 -1 -21 -1 -4 -11 13 -8 22 -7 34 3 15
12 15 11 2 -9 -17 -28 -30 -29 -46 -3 -11 16 -9 21 9 35 27 18 44 19 54 3z
m-3283 -25 c-7 -2 -19 -2 -25 0 -7 3 -2 5 12 5 14 0 19 -2 13 -5z m3475 -48
c23 -26 21 -27 -31 -29 -18 -1 -29 4 -33 16 -3 10 -10 18 -15 18 -6 0 -7 5 -4
10 12 19 61 11 83 -15z m-140 3 c20 -20 14 -33 -21 -46 -46 -16 -47 -16 -47
17 0 28 9 36 46 40 5 0 15 -4 22 -11z"/>
<path d="M2881 3264 c0 -11 3 -14 6 -6 3 7 2 16 -1 19 -3 4 -6 -2 -5 -13z"/>
<path d="M2088 3043 c6 -2 18 -2 25 0 6 3 1 5 -13 5 -14 0 -19 -2 -12 -5z"/>
<path d="M2567 2889 c7 -7 15 -10 18 -7 3 3 -2 9 -12 12 -14 6 -15 5 -6 -5z"/>
<path d="M2616 2862 c-3 -4 4 -9 15 -9 23 -2 25 3 4 10 -8 4 -16 3 -19 -1z"/>
<path d="M1817 2659 c-10 -6 -24 -8 -32 -6 -8 4 -13 -2 -12 -16 0 -12 -3 -30
-8 -41 -6 -14 4 -10 42 15 28 19 59 39 69 46 17 11 16 12 -11 12 -16 0 -38 -4
-48 -10z"/>
<path d="M2059 2659 c-1 -8 -1 -20 0 -26 1 -7 -2 -13 -7 -13 -16 0 -43 -68
-40 -97 2 -23 -1 -29 -20 -31 -38 -6 -123 30 -133 55 -5 13 -16 23 -25 23 -14
0 -16 -8 -12 -49 4 -36 14 -61 39 -93 19 -23 37 -44 41 -46 5 -2 8 -9 8 -16 0
-7 13 -31 30 -52 46 -60 51 -65 60 -59 4 3 10 -2 14 -10 3 -8 13 -15 22 -15
11 0 14 5 9 18 -4 9 -10 27 -13 40 -2 13 -11 26 -18 29 -8 3 -14 15 -14 27 0
11 4 17 8 11 11 -15 50 -35 67 -35 9 0 14 -4 11 -8 -2 -4 3 -9 12 -9 9 -1 55
-7 102 -14 47 -6 111 -13 142 -16 32 -3 62 -11 69 -19 17 -21 29 -17 29 9 0
13 -12 34 -27 48 -14 13 -23 19 -19 12 4 -7 -4 -19 -19 -29 -22 -14 -30 -15
-49 -5 -13 7 -45 13 -72 14 -42 0 -53 5 -82 35 l-34 34 31 -7 c17 -4 47 -1 68
6 49 17 50 18 33 29 -12 7 -8 12 18 21 18 6 37 20 43 31 9 16 13 18 19 8 6
-10 13 -4 23 21 16 38 4 49 -32 30 -23 -13 -71 -14 -87 -3 -6 4 -14 17 -18 28
-11 37 -41 63 -92 79 -27 9 -57 26 -66 37 -13 14 -18 16 -19 7z"/>
<path d="M1978 2175 c-17 -23 -17 -24 10 -45 15 -12 21 -18 13 -14 -21 10 -2
-17 23 -36 21 -15 89 -15 94 1 2 5 10 9 18 9 8 0 14 6 14 13 0 8 -31 26 -70
41 -38 15 -73 34 -77 41 -6 10 -12 7 -25 -10z"/>
<path d="M550 1341 c0 -6 4 -13 10 -16 6 -3 7 1 4 9 -7 18 -14 21 -14 7z"/>
<path d="M4060 1090 c-13 -8 -12 -10 3 -10 9 0 17 5 17 10 0 12 -1 12 -20 0z"/>
<path d="M4025 1041 c-7 -12 12 -24 25 -16 11 7 4 25 -10 25 -5 0 -11 -4 -15
-9z"/>
<path d="M4380 1006 c0 -2 7 -7 16 -10 8 -3 12 -2 9 4 -6 10 -25 14 -25 6z"/>
<path d="M1910 656 l-34 -13 33 -11 c19 -7 62 -12 97 -12 48 0 76 -6 117 -26
41 -20 62 -25 83 -19 l29 7 -35 29 c-64 54 -205 76 -290 45z"/>
<path d="M1778 634 c-9 -9 30 -140 58 -196 38 -75 98 -133 176 -173 80 -40
124 -50 173 -41 32 6 35 10 35 41 0 52 -45 154 -92 208 -43 51 -113 90 -256
141 -78 28 -85 29 -94 20z m308 -155 c18 -17 24 -33 24 -67 0 -92 -101 -137
-168 -74 -17 16 -34 41 -37 55 -9 35 19 91 53 105 40 16 100 7 128 -19z"/>
<path d="M1973 470 c-23 -9 -43 -39 -43 -63 0 -8 12 -27 26 -42 22 -23 31 -27
62 -21 44 7 62 28 62 73 0 26 -6 36 -30 48 -33 17 -45 18 -77 5z"/>
<path d="M2035 580 c3 -5 12 -10 19 -10 7 0 36 -20 65 -45 55 -47 92 -56 126
-32 24 19 13 73 -13 61 -40 -17 -70 -14 -122 10 -58 27 -85 33 -75 16z"/>
<path d="M1750 506 c-13 -40 -9 -112 9 -176 11 -35 74 -110 93 -110 14 0 1 49
-21 80 -26 37 -41 87 -41 139 -1 25 -7 60 -14 76 l-13 30 -13 -39z"/>
<path d="M2255 471 c-3 -5 -19 -12 -35 -16 -35 -8 -36 -12 -10 -45 l20 -25 20
24 c11 13 20 34 20 47 0 25 -5 30 -15 15z"/>
<path d="M1820 391 c0 -7 13 -37 30 -66 16 -28 33 -69 38 -90 6 -31 13 -40 35
-46 15 -4 29 -3 32 2 8 11 -5 79 -15 79 -12 0 -81 71 -101 104 -10 17 -19 25
-19 17z"/>
<path d="M2237 373 c-4 -3 -7 -13 -7 -22 1 -13 3 -13 11 2 11 19 8 33 -4 20z"/>
<path d="M1992 204 c-1 -32 0 -34 34 -34 30 0 35 3 32 21 -2 12 -16 26 -34 34
l-31 13 -1 -34z"/>
<path d="M2090 190 c0 -5 10 -10 23 -10 18 0 19 2 7 10 -19 13 -30 13 -30 0z"/>
<path d="M1368 733 c6 -2 18 -2 25 0 6 3 1 5 -13 5 -14 0 -19 -2 -12 -5z"/>
<path d="M1325 510 c-3 -5 -1 -10 4 -10 6 0 11 5 11 10 0 6 -2 10 -4 10 -3 0
-8 -4 -11 -10z"/>
<path d="M1923 24 c-18 -18 -17 -19 17 -19 34 0 39 10 13 24 -13 6 -22 5 -30
-5z"/>
<path d="M2260 20 c0 -13 27 -13 35 0 3 6 -3 10 -14 10 -12 0 -21 -4 -21 -10z"/>
</g>
</svg>
